<?xml version="1.0" encoding="UTF-8"?>
<svg version="1.1" id="Layer_1" xmlns="http://www.w3.org/2000/svg" xmlns:xlink="http://www.w3.org/1999/xlink" x="0px" y="0px" width="246.084px" height="445.28px" viewBox="0 0 246.084 445.28" enable-background="new 0 0 246.084 445.28" xml:space="preserve">
<g>
	<g>
		<path fill="#231F20" d="M122.188,55.567c-4.255-18.046-2.134-36.883-0.878-55.157c0.039-0.562-0.788-0.532-0.855,0    c-2.344,18.452-3.817,37.178,0.928,55.379C121.519,56.31,122.311,56.091,122.188,55.567L122.188,55.567z"/>
	</g>
	<g>
		<path fill="#231F20" d="M122.798,60.497c0.717-21.014,12.589-39.244,24.531-55.74c0.208-0.288-0.265-0.652-0.492-0.379    c-13.434,16.164-24.35,34.566-24.603,56.12C122.23,60.861,122.785,60.859,122.798,60.497L122.798,60.497z"/>
	</g>
	<linearGradient id="SVGID_1_" gradientUnits="userSpaceOnUse" x1="86.387" y1="427.6307" x2="87.8712" y2="447.5147">
		<stop offset="0" style="stop-color:#231F20"/>
		<stop offset="0.5394" style="stop-color:#353435"/>
		<stop offset="0.9939" style="stop-color:#231F20"/>
	</linearGradient>
	<path fill="url(#SVGID_1_)" d="M78.964,424.228c0,0-27.602,3.859-22.26,15.434l-1.188,1.186l0.594,2.968   c0,0,26.415,2.376,36.802-1.483l10.091-2.078v1.188c0,0,12.763,0.295,15.434-2.078l0.593-1.188l-0.297-3.264l-1.187-0.891v-5.045   l0.297-1.78l-0.891-3.859l-4.154-1.483l-20.776-0.89l-11.575,0.89L78.964,424.228z"/>
	
		<linearGradient id="SVGID_2_" gradientUnits="userSpaceOnUse" x1="148.4902" y1="446.0027" x2="150.4112" y2="471.7379" gradientTransform="matrix(0.9989 -0.0463 0.0463 0.9989 -20.9434 -12.5125)">
		<stop offset="0" style="stop-color:#231F20"/>
		<stop offset="0.5394" style="stop-color:#353435"/>
		<stop offset="0.9939" style="stop-color:#231F20"/>
	</linearGradient>
	<path fill="url(#SVGID_2_)" d="M124.606,422.108l-2.2,2.762c0,0-2.332,7.092-0.233,9.321l-0.403,5.673c0,0,7.378,1.321,9.353,0.895   l1.265-1.388c0,0,19.421,10.072,44.741,3.913l0.147-3.997l-1.388-1.266c0,0,0.95-1.044,0.78-4.692c0,0,2.423-5.1-17.777-10.482   l-11.196-4.802l-13.528,2.289L124.606,422.108z"/>
	<linearGradient id="SVGID_3_" gradientUnits="userSpaceOnUse" x1="99.3066" y1="479.6935" x2="98.7128" y2="412.0295">
		<stop offset="0.3333" style="stop-color:#7DA1BC"/>
		<stop offset="0.8303" style="stop-color:#55798A"/>
		<stop offset="1" style="stop-color:#466882"/>
	</linearGradient>
	<path fill="url(#SVGID_3_)" d="M77.776,409.092l2.671,13.355c0,0,26.44,5.506,37.357,0.543l1.819-10.921L77.776,409.092z"/>
	<linearGradient id="SVGID_4_" gradientUnits="userSpaceOnUse" x1="141.5964" y1="479.3237" x2="141.0026" y2="411.6581">
		<stop offset="0.3333" style="stop-color:#7DA1BC"/>
		<stop offset="0.8303" style="stop-color:#55798A"/>
		<stop offset="1" style="stop-color:#466882"/>
	</linearGradient>
	<path fill="url(#SVGID_4_)" d="M161.472,409.092l-2.614,13.355c0,0-25.878,5.506-36.563,0.543l-1.781-10.921L161.472,409.092z"/>
	<linearGradient id="SVGID_5_" gradientUnits="userSpaceOnUse" x1="29.8445" y1="231.9071" x2="215.4382" y2="231.9071">
		<stop offset="0" style="stop-color:#EDBA4E"/>
		<stop offset="0.1212" style="stop-color:#F5D875"/>
		<stop offset="0.5879" style="stop-color:#F5D875"/>
		<stop offset="1" style="stop-color:#EDBA4E"/>
	</linearGradient>
	<path fill="url(#SVGID_5_)" d="M211.825,140.861c0-49.539-39.862-89.7-89.04-89.7c-49.171,0-89.036,40.161-89.036,89.7   c0,4.151-1.53,21.656-1.53,26.058l-2.374,157.583c0,2.928,0.594,18.331,0.594,20.645c0,41.205,43.598,67.507,92.748,67.507   c49.155,0,92.252-28.281,92.252-69.487c0-2.173-0.395-14.216-0.395-17.287l-1.781-158.273   C213.262,163.206,211.825,145.015,211.825,140.861z"/>
	
		<radialGradient id="SVGID_6_" cx="121.4047" cy="328.9574" r="102.4092" fx="95.6117" fy="327.6222" gradientUnits="userSpaceOnUse">
		<stop offset="0.3333" style="stop-color:#7DA1BC"/>
		<stop offset="0.8303" style="stop-color:#55798A"/>
		<stop offset="1" style="stop-color:#466882"/>
	</radialGradient>
	<path fill="url(#SVGID_6_)" d="M220.237,349.448c-13.217-1.827-25.955-3.26-38.16-4.375c-2.095-13.768-3.305-51.102-3.305-51.102   c-12.394,5.675-115.872-0.629-115.872-0.629c3.977,8.6-2.414,38.698-5.098,50.267c-19.564,1.488-30.481,3.317-30.481,3.317   c-4.749,76.279,97.942,67.452,97.942,67.452C237.154,416.215,220.237,349.448,220.237,349.448z"/>
	<path opacity="0.27" fill="#231F20" d="M162.681,305.397l6.766,11.149l44.556-21.186l0.37-15.011   C214.372,280.351,166.685,299.473,162.681,305.397z"/>
	<linearGradient id="SVGID_7_" gradientUnits="userSpaceOnUse" x1="193.1732" y1="321.8257" x2="189.6116" y2="288.8812">
		<stop offset="0" style="stop-color:#55798A"/>
		<stop offset="1" style="stop-color:#7DA1BC"/>
	</linearGradient>
	<path fill="url(#SVGID_7_)" d="M163.22,302.224l7.525,11.268l46.862-23.108l-1.918-15.324   C215.69,275.059,167.442,295.9,163.22,302.224z"/>
	<circle fill="#404041" cx="172.156" cy="304.918" r="4.674"/>
	<path opacity="0.27" fill="#231F20" d="M78.799,305.477l-7.154,10.613l-41.072-24.383l0.607-14.987   C31.179,276.721,75.365,299.279,78.799,305.477z"/>
	<linearGradient id="SVGID_8_" gradientUnits="userSpaceOnUse" x1="46.9564" y1="309.7045" x2="52.7443" y2="291.8957">
		<stop offset="0" style="stop-color:#55798A"/>
		<stop offset="1" style="stop-color:#7DA1BC"/>
	</linearGradient>
	<path fill="url(#SVGID_8_)" d="M78.966,302.012l-7.766,10.98L26.87,288.205l2.516-15.237   C29.386,272.968,75.156,295.542,78.966,302.012z"/>
	<circle fill="#404041" cx="68.872" cy="304.027" r="4.674"/>
	<path opacity="0.27" fill="#231F20" d="M92.059,313.38c0,0,26.438,2.359,52.877,0.944c0,0,8.971,42.018-28.799,37.77   C116.137,352.094,88.281,357.76,92.059,313.38z"/>
	<linearGradient id="SVGID_9_" gradientUnits="userSpaceOnUse" x1="117.6959" y1="356.4803" x2="118.5863" y2="322.2005">
		<stop offset="0" style="stop-color:#55798A"/>
		<stop offset="1" style="stop-color:#7DA1BC"/>
	</linearGradient>
	<path fill="url(#SVGID_9_)" d="M93.373,313.825c0,0,24.931,2.226,49.861,0.89c0,0,8.459,39.622-27.156,35.615   C116.078,350.33,89.812,355.673,93.373,313.825z"/>
	<path opacity="0.27" fill="#231F20" d="M57.298,346.022c0,0-21.933,23.251-24.486,25.674   C32.812,371.696,56.704,356.412,57.298,346.022z"/>
	<g>
		
			<line fill="none" stroke="#EDBA4E" stroke-width="0.75" stroke-miterlimit="10" x1="118.733" y1="409.39" x2="118.733" y2="408.499"/>
		
			<line fill="none" stroke="#EDBA4E" stroke-width="0.75" stroke-miterlimit="10" stroke-dasharray="1.9734,1.9734" x1="118.733" y1="406.742" x2="118.733" y2="365.451"/>
		
			<line fill="none" stroke="#EDBA4E" stroke-width="0.75" stroke-miterlimit="10" x1="118.733" y1="364.573" x2="118.733" y2="363.683"/>
	</g>
	<g>
		
			<line fill="none" stroke="#EDBA4E" stroke-width="0.75" stroke-miterlimit="10" x1="121.108" y1="409.39" x2="121.108" y2="408.499"/>
		
			<line fill="none" stroke="#EDBA4E" stroke-width="0.75" stroke-miterlimit="10" stroke-dasharray="1.9734,1.9734" x1="121.108" y1="406.742" x2="121.108" y2="365.451"/>
		
			<line fill="none" stroke="#EDBA4E" stroke-width="0.75" stroke-miterlimit="10" x1="121.108" y1="364.573" x2="121.108" y2="363.683"/>
	</g>
	<path fill="none" stroke="#EDBA4E" stroke-width="0.75" stroke-miterlimit="10" stroke-dasharray="2" d="M31.031,373.588   c0,0,21.369-13.022,27.379-27.49c0,0,6.233-23.817,5.788-32.944"/>
	<path opacity="0.27" fill="#231F20" d="M180.022,346.468c0,0,28.046,28.492,31.311,31.461   C211.333,377.929,200.056,377.038,180.022,346.468z"/>
	<path fill="none" stroke="#EDBA4E" stroke-width="0.75" stroke-miterlimit="10" stroke-dasharray="2" d="M31.81,375.258   c0,0,22.816-14.246,28.826-28.715c0,0,6.232-23.818,5.787-32.944"/>
	<path fill="none" stroke="#EDBA4E" stroke-width="0.75" stroke-miterlimit="10" stroke-dasharray="2" d="M209.773,379.306   c0,0-23.49-17.764-29.751-32.838c0,0-2.69-23.435-2.226-32.944"/>
	<path fill="none" stroke="#EDBA4E" stroke-width="0.75" stroke-miterlimit="10" stroke-dasharray="2" d="M208.071,381.045   c0,0-24.162-19.058-30.424-34.132c0,0-2.838-22.842-2.374-32.351"/>
	<path fill="none" stroke="#EDBA4E" stroke-width="0.75" stroke-miterlimit="10" stroke-dasharray="2" d="M120.69,348.503   c-1.466,0-3.028-0.093-4.64-0.273l-0.28-0.031l-0.274,0.056c-0.004,0-0.96,0.185-2.433,0.185c-3.355,0-8.173-0.889-12.067-5.129   c-5-5.442-7.087-14.823-6.21-27.898c4.494,0.345,16.883,1.18,31.268,1.18c5.406,0,10.601-0.118,15.467-0.35   c0.663,4.41,1.967,17.601-4.535,25.626c-3.567,4.401-9.048,6.635-16.294,6.635C120.692,348.503,120.691,348.503,120.69,348.503z"/>
	
		<line fill="none" stroke="#EDBA4E" stroke-width="0.75" stroke-miterlimit="10" stroke-dasharray="2" x1="27.692" y1="286.888" x2="71.321" y2="311.596"/>
	<path fill="none" stroke="#EDBA4E" stroke-width="0.75" stroke-miterlimit="10" stroke-dasharray="2" d="M29.807,274.422   c0,0,42.404,21.703,47.858,28.158"/>
	
		<line fill="none" stroke="#EDBA4E" stroke-width="0.75" stroke-miterlimit="10" stroke-dasharray="2" x1="215.703" y1="289.908" x2="170.648" y2="311.906"/>
	<path fill="none" stroke="#EDBA4E" stroke-width="0.75" stroke-miterlimit="10" stroke-dasharray="2" d="M214.354,277.338   c0,0-43.649,19.072-49.487,25.184"/>
	
		<rect x="68.205" y="301.8" transform="matrix(0.9892 0.1463 -0.1463 0.9892 45.2351 -6.8059)" fill="#55798A" width="1.335" height="4.452"/>
	
		<rect x="68.204" y="301.8" transform="matrix(0.1454 -0.9894 0.9894 0.1454 -241.9359 327.9674)" fill="#55798A" width="1.336" height="4.451"/>
	
		<rect x="171.489" y="302.469" transform="matrix(0.9958 -0.0921 0.0921 0.9958 -27.3253 17.1469)" fill="#55798A" width="1.336" height="4.452"/>
	
		<rect x="171.488" y="302.469" transform="matrix(-0.0924 -0.9957 0.9957 -0.0924 -115.3308 504.2637)" fill="#55798A" width="1.337" height="4.452"/>
	<path opacity="0.27" fill="#231F20" d="M27.469,359.23l1.67,8.348c0,0,11.912-39.014,15.055-46.759   C47.338,313.073,24.851,350.116,27.469,359.23z"/>
	<defs>
		<filter id="Adobe_OpacityMaskFilter" filterUnits="userSpaceOnUse" x="3.655" y="301.679" width="46.25" height="103.819">
			<feColorMatrix type="matrix" values="1 0 0 0 0  0 1 0 0 0  0 0 1 0 0  0 0 0 1 0"/>
		</filter>
	</defs>
	<mask maskUnits="userSpaceOnUse" x="3.655" y="301.679" width="46.25" height="103.819" id="SVGID_10_">
		<g filter="url(#Adobe_OpacityMaskFilter)">
			
				<linearGradient id="SVGID_11_" gradientUnits="userSpaceOnUse" x1="-238.0496" y1="618.5315" x2="-259.5305" y2="635.8165" gradientTransform="matrix(1.9799 -3.0191 -0.0394 3.0249 569.5311 -2369.2666)">
				<stop offset="0.7039" style="stop-color:#231F20"/>
				<stop offset="0.7248" style="stop-color:#5C595A"/>
				<stop offset="0.7484" style="stop-color:#959394"/>
				<stop offset="0.7701" style="stop-color:#C3C2C2"/>
				<stop offset="0.7893" style="stop-color:#E4E3E3"/>
				<stop offset="0.8052" style="stop-color:#F8F8F8"/>
				<stop offset="0.8159" style="stop-color:#FFFFFF"/>
			</linearGradient>
			<polygon fill="url(#SVGID_11_)" points="61.625,303.391 22.202,410.638 -10.297,398.691 29.125,291.443    "/>
		</g>
	</mask>
	
		<linearGradient id="SVGID_12_" gradientUnits="userSpaceOnUse" x1="-48.7878" y1="361.4516" x2="-12.2849" y2="367.6838" gradientTransform="matrix(1.1219 -0.0324 0.0288 0.9996 38.9091 -13.2505)">
		<stop offset="0" style="stop-color:#EDBA4E"/>
		<stop offset="0.1212" style="stop-color:#F5D875"/>
		<stop offset="0.5879" style="stop-color:#F5D875"/>
		<stop offset="1" style="stop-color:#EDBA4E"/>
	</linearGradient>
	<path mask="url(#SVGID_10_)" fill="url(#SVGID_12_)" d="M13.403,405.494c-0.268,0.007-0.537,0.005-0.809-0.009   c-5.234-0.24-9.229-4.221-8.923-8.885c3.629-55.325,27.723-89.548,28.746-90.978c2.829-3.949,8.699-5.13,13.115-2.635   c4.409,2.492,5.696,7.705,2.881,11.655l0,0c-0.225,0.314-22.466,32.19-25.788,82.833C22.334,401.897,18.282,405.351,13.403,405.494   z"/>
	
		<linearGradient id="SVGID_13_" gradientUnits="userSpaceOnUse" x1="-29.2104" y1="398.8638" x2="9.1406" y2="398.8638" gradientTransform="matrix(1.0755 0.0139 -0.0129 0.9999 36.6435 6.0022)">
		<stop offset="0" style="stop-color:#231F20"/>
		<stop offset="0.5394" style="stop-color:#353435"/>
		<stop offset="0.9939" style="stop-color:#231F20"/>
	</linearGradient>
	<path fill="url(#SVGID_13_)" d="M5.235,382.161c-6.207,0.832-4.026,5.974-2.707,10.019c0.261,0.804,0.639,1.635,0.756,2.472   c0.187,1.332-0.299,2.31-0.855,3.756c-0.353,0.919-1.113,2.338-1.878,6.399c-0.117-0.027-1.369,8.383,0.35,11.982   c1.043,2.183,2.627,2.849,4.857,3.56c1.647,0.525,7.369-1.06,7.84-0.534c3.231,3.617,4.659,7.991,10.702,7.109   c5.914-0.866,8.363-5.101,7.9-10.551c5.909-0.168,11.473-5.678,8.021-11.268c-2.641-4.272-6.189-3.593-9.933-5.647   c-1.768-0.969-3.537-1.939-5.271-2.96c-1.899-1.118-0.859-0.933-0.517-2.637c0.518-2.58,0.601-5.128,0.715-7.752   c0.044-0.995-8.459,1.326-15.567,0.573c-0.977-0.104-2.761-0.21-3.541-0.73C4.829,385.105,5.235,382.161,5.235,382.161z"/>
	<path opacity="0.27" fill="#231F20" d="M219.986,366.947l-1.669,8.347c0,0-11.912-39.013-15.056-46.759   C200.118,320.789,222.606,357.832,219.986,366.947z"/>
	<defs>
		<filter id="Adobe_OpacityMaskFilter_1_" filterUnits="userSpaceOnUse" x="196.18" y="305.835" width="46.249" height="103.818">
			<feColorMatrix type="matrix" values="1 0 0 0 0  0 1 0 0 0  0 0 1 0 0  0 0 0 1 0"/>
		</filter>
	</defs>
	<mask maskUnits="userSpaceOnUse" x="196.18" y="305.835" width="46.249" height="103.818" id="SVGID_14_">
		<g filter="url(#Adobe_OpacityMaskFilter_1_)">
			
				<linearGradient id="SVGID_15_" gradientUnits="userSpaceOnUse" x1="-593.5789" y1="265.0569" x2="-615.0601" y2="282.3421" gradientTransform="matrix(-1.9799 -3.0191 0.0394 3.0249 -1013.4328 -2369.2666)">
				<stop offset="0.7039" style="stop-color:#231F20"/>
				<stop offset="0.7248" style="stop-color:#5C595A"/>
				<stop offset="0.7484" style="stop-color:#959394"/>
				<stop offset="0.7701" style="stop-color:#C3C2C2"/>
				<stop offset="0.7893" style="stop-color:#E4E3E3"/>
				<stop offset="0.8052" style="stop-color:#F8F8F8"/>
				<stop offset="0.8159" style="stop-color:#FFFFFF"/>
			</linearGradient>
			<polygon fill="url(#SVGID_15_)" points="184.459,307.545 223.882,414.793 256.381,402.848 216.959,295.598    "/>
		</g>
	</mask>
	
		<linearGradient id="SVGID_16_" gradientUnits="userSpaceOnUse" x1="-663.3982" y1="345.6877" x2="-626.8956" y2="351.9198" gradientTransform="matrix(-1.1219 -0.0324 -0.0288 0.9996 -482.8106 -13.2505)">
		<stop offset="0" style="stop-color:#EDBA4E"/>
		<stop offset="0.1212" style="stop-color:#F5D875"/>
		<stop offset="0.5879" style="stop-color:#F5D875"/>
		<stop offset="1" style="stop-color:#EDBA4E"/>
	</linearGradient>
	<path mask="url(#SVGID_14_)" fill="url(#SVGID_16_)" d="M232.681,409.648c0.268,0.007,0.538,0.005,0.809-0.007   c5.235-0.242,9.23-4.221,8.923-8.885c-3.629-55.327-27.723-89.549-28.746-90.978c-2.829-3.949-8.7-5.13-13.115-2.637   c-4.409,2.492-5.696,7.707-2.88,11.655l0,0c0.224,0.316,22.466,32.19,25.788,82.835   C223.75,406.054,227.802,409.508,232.681,409.648z"/>
	
		<linearGradient id="SVGID_17_" gradientUnits="userSpaceOnUse" x1="-670.6016" y1="411.9355" x2="-632.2507" y2="411.9355" gradientTransform="matrix(-1.0755 0.0139 0.0129 0.9999 -480.5441 6.0022)">
		<stop offset="0" style="stop-color:#231F20"/>
		<stop offset="0.5394" style="stop-color:#353435"/>
		<stop offset="0.9939" style="stop-color:#231F20"/>
	</linearGradient>
	<path fill="url(#SVGID_17_)" d="M240.849,386.316c6.208,0.831,4.026,5.973,2.708,10.02c-0.261,0.802-0.639,1.633-0.757,2.47   c-0.188,1.334,0.3,2.31,0.855,3.756c0.354,0.919,1.113,2.338,1.879,6.401c0.117-0.029,1.368,8.381-0.35,11.982   c-1.044,2.183-2.627,2.849-4.857,3.558c-1.647,0.525-7.369-1.061-7.84-0.533c-3.231,3.618-4.659,7.992-10.702,7.108   c-5.914-0.864-8.363-5.101-7.9-10.549c-5.909-0.168-11.472-5.68-8.02-11.269c2.641-4.274,6.189-3.595,9.933-5.648   c1.768-0.969,3.536-1.938,5.271-2.96c1.899-1.118,0.859-0.93,0.517-2.636c-0.518-2.581-0.602-5.129-0.716-7.753   c-0.044-0.995,8.459,1.327,15.567,0.574c0.978-0.104,2.761-0.211,3.542-0.729C241.255,389.262,240.849,386.316,240.849,386.316z"/>
	<path fill="#EDBA4E" d="M129.323,219.681c-15.403,2.091-26.999-1.551-27.722-1.784c-0.86-0.279-1.371-1.27-1.141-2.209   c0.23-0.94,1.113-1.479,1.974-1.2c0.257,0.083,25.896,8.091,51.132-6.97c0.776-0.46,1.761-0.133,2.2,0.731   c0.441,0.866,0.171,1.944-0.604,2.405C146.183,216.012,137.249,218.604,129.323,219.681z"/>
	<path fill="#754C28" d="M129.482,218.535c-15.49,2.103-27.219-1.586-27.396-1.642c-0.214-0.069-0.342-0.317-0.285-0.552   c0.058-0.236,0.277-0.371,0.495-0.301c0.259,0.084,26.341,8.263,52.042-7.07c0.192-0.113,0.441-0.033,0.548,0.184   c0.111,0.216,0.045,0.485-0.149,0.602C146.032,214.949,137.278,217.476,129.482,218.535z"/>
	<g>
		<path fill="#231F20" d="M123.162,56.834c-0.674-18.472,4.951-36.427,9.718-54.058c0.145-0.537-0.652-0.747-0.825-0.228    c-5.876,17.593-10.853,35.568-9.728,54.286C122.36,57.367,123.182,57.375,123.162,56.834L123.162,56.834z"/>
	</g>
	<g>
		<path fill="#231F20" d="M121.113,54.734c-2.204-19.291-12.452-36.497-24.336-51.462c-0.289-0.364-0.887,0.109-0.639,0.493    c10.104,15.622,20.884,32.431,24.054,51.094C120.279,55.379,121.174,55.26,121.113,54.734L121.113,54.734z"/>
	</g>
	<g>
		<path fill="#231F20" d="M125.33,60.53c2.65-18.108,7.324-35.89,11.852-53.591c0.114-0.448-0.534-0.615-0.685-0.188    c-6.145,17.429-10.062,35.314-12.007,53.665C124.439,60.894,125.26,61.006,125.33,60.53L125.33,60.53z"/>
	</g>
	<g>
		<path fill="#231F20" d="M120.148,59.282c2.208-15.065-1.587-29.543-6.384-43.743c-0.175-0.519-0.964-0.311-0.825,0.228    c3.657,14.142,8.116,28.633,6.389,43.405C119.274,59.638,120.08,59.746,120.148,59.282L120.148,59.282z"/>
	</g>
	<g>
		<linearGradient id="SVGID_18_" gradientUnits="userSpaceOnUse" x1="195.2193" y1="118.4211" x2="195.6653" y2="131.8002">
			<stop offset="0" style="stop-color:#231F20"/>
			<stop offset="0.5394" style="stop-color:#353435"/>
			<stop offset="0.9939" style="stop-color:#231F20"/>
		</linearGradient>
		<path fill="url(#SVGID_18_)" d="M216.211,128.896c0,3.02-3.604,5.468-8.049,5.468h-25.358c-4.446,0-8.05-2.448-8.05-5.468v-5.195    c0-3.02,3.604-5.468,8.05-5.468h25.358c4.446,0,8.049,2.448,8.049,5.468V128.896z"/>
		<linearGradient id="SVGID_19_" gradientUnits="userSpaceOnUse" x1="196.5689" y1="132.6257" x2="196.992" y2="145.319">
			<stop offset="0" style="stop-color:#231F20"/>
			<stop offset="0.5394" style="stop-color:#353435"/>
			<stop offset="0.9939" style="stop-color:#231F20"/>
		</linearGradient>
		<path fill="url(#SVGID_19_)" d="M217.991,142.554c0,2.854-3.681,5.166-8.221,5.166h-25.905c-4.54,0-8.221-2.313-8.221-5.166    v-4.907c0-2.853,3.681-5.167,8.221-5.167h25.905c4.54,0,8.221,2.314,8.221,5.167V142.554z"/>
		
			<linearGradient id="SVGID_20_" gradientUnits="userSpaceOnUse" x1="-644.824" y1="120.0253" x2="-644.3806" y2="133.3261" gradientTransform="matrix(-1 0 0 1 -596.9955 0)">
			<stop offset="0" style="stop-color:#231F20"/>
			<stop offset="0.5394" style="stop-color:#353435"/>
			<stop offset="0.9939" style="stop-color:#231F20"/>
		</linearGradient>
		<path fill="url(#SVGID_20_)" d="M29.231,130.455c0,3.018,3.188,5.468,7.121,5.468h22.433c3.933,0,7.12-2.449,7.12-5.468v-5.195    c0-3.02-3.187-5.469-7.12-5.469H36.351c-3.933,0-7.121,2.449-7.121,5.469V130.455z"/>
		
			<linearGradient id="SVGID_21_" gradientUnits="userSpaceOnUse" x1="-643.9747" y1="134.1718" x2="-643.6013" y2="145.3737" gradientTransform="matrix(-1 0 0 1 -596.9955 0)">
			<stop offset="0" style="stop-color:#231F20"/>
			<stop offset="0.5394" style="stop-color:#353435"/>
			<stop offset="0.9939" style="stop-color:#231F20"/>
		</linearGradient>
		<path fill="url(#SVGID_21_)" d="M28.34,142.935c0,2.52,3.202,4.563,7.152,4.563h22.533c3.951,0,7.152-2.044,7.152-4.563v-4.334    c0-2.52-3.202-4.564-7.152-4.564H35.493c-3.95,0-7.152,2.044-7.152,4.564V142.935z"/>
		<g>
			<path fill="#A5A3A3" d="M71.11,131.295c0,1.828-1.481,3.31-3.31,3.31h-2.316c-1.828,0-3.309-1.482-3.309-3.31v-10.919     c0-1.828,1.481-3.31,3.309-3.31H67.8c1.828,0,3.31,1.481,3.31,3.31V131.295z"/>
			<path fill="#A5A3A3" d="M71.441,146.415c0,2.066-1.482,3.741-3.31,3.741h-2.647c-1.828,0-3.309-1.675-3.309-3.741v-9.725     c0-2.065,1.481-3.741,3.309-3.741h2.647c1.828,0,3.31,1.676,3.31,3.741V146.415z"/>
		</g>
		<path opacity="0.17" fill="#231F20" d="M175.996,137.921c0-16.774-7.542-31.781-19.409-41.839    c0.567-0.301,0.952-0.846,0.952-1.474v-0.765c0-0.95-0.866-1.72-1.934-1.72c-1.04,0-1.885,0.731-1.928,1.649    c-8.747-6.453-19.48-10.357-31.114-10.649c0.007-0.057,0.019-0.11,0.019-0.168v-0.765c0-0.948-0.865-1.719-1.934-1.719    c-1.068,0-1.933,0.771-1.933,1.719v0.765c0,0.065,0.013,0.129,0.021,0.193c-10.069,0.439-19.428,3.598-27.373,8.753    c-0.346-0.489-0.914-0.811-1.559-0.811H89.04c-1.055,0-1.91,0.855-1.91,1.911c0,0.571,0.256,1.078,0.654,1.429    c-13.041,10.022-21.455,25.77-21.455,43.49c0,17.461,8.173,33.005,20.891,43.047c-0.468,0.349-0.776,0.899-0.776,1.529    c0,1.055,0.856,1.91,1.91,1.91h0.765c0.673,0,1.263-0.352,1.603-0.879c7.896,5.279,17.238,8.563,27.307,9.13v0.648    c0,0.949,0.865,1.72,1.934,1.72c1.068,0,1.934-0.771,1.934-1.72v-0.572c11.677-0.154,22.468-3.956,31.294-10.32    c0.316,0.566,0.968,0.96,1.728,0.96c1.069,0,1.934-0.769,1.934-1.721v-0.763c0-0.387-0.147-0.737-0.389-1.024    C168.403,169.808,175.996,154.755,175.996,137.921z M121.357,177.899c-22.046,0-39.982-17.936-39.982-39.982    c0-22.045,17.936-39.982,39.982-39.982c22.046,0,39.982,17.937,39.982,39.982C161.339,159.963,143.403,177.899,121.357,177.899z"/>
		<g>
			
				<radialGradient id="SVGID_22_" cx="46.502" cy="114.0345" r="36.3256" gradientTransform="matrix(1.2201 0 0 0.9762 64.5685 23.365)" gradientUnits="userSpaceOnUse">
				<stop offset="0" style="stop-color:#FFFFFF"/>
				<stop offset="0.4663" style="stop-color:#FDFDFD"/>
				<stop offset="0.6483" style="stop-color:#F6F6F7"/>
				<stop offset="0.7805" style="stop-color:#EAEBEB"/>
				<stop offset="0.8888" style="stop-color:#D9DADB"/>
				<stop offset="0.9812" style="stop-color:#C3C4C6"/>
				<stop offset="1" style="stop-color:#BDBFC1"/>
			</radialGradient>
			<ellipse fill="url(#SVGID_22_)" cx="121.306" cy="134.685" rx="44.321" ry="35.461"/>
			<path fill="#D19B43" d="M121.305,170.724c-24.77,0-44.922-16.167-44.922-36.038c0-19.872,20.152-36.039,44.922-36.039     s44.922,16.167,44.922,36.039C166.228,154.557,146.075,170.724,121.305,170.724z M121.305,99.802     c-24.108,0-43.72,15.649-43.72,34.884c0,19.234,19.612,34.884,43.72,34.884c24.108,0,43.721-15.649,43.721-34.884     C165.026,115.451,145.414,99.802,121.305,99.802z"/>
		</g>
		<g>
			<radialGradient id="SVGID_23_" cx="121.3166" cy="137.5634" r="14.9573" gradientUnits="userSpaceOnUse">
				<stop offset="0" style="stop-color:#56413A"/>
				<stop offset="0.1553" style="stop-color:#59423A"/>
				<stop offset="0.2629" style="stop-color:#624338"/>
				<stop offset="0.356" style="stop-color:#714636"/>
				<stop offset="0.4408" style="stop-color:#874B33"/>
				<stop offset="0.5194" style="stop-color:#A3502F"/>
				<stop offset="0.5758" style="stop-color:#BC552C"/>
				<stop offset="0.8848" style="stop-color:#82645B"/>
				<stop offset="1" style="stop-color:#5D463F"/>
			</radialGradient>
			<circle fill="url(#SVGID_23_)" cx="121.317" cy="137.563" r="14.957"/>
			<circle fill="#231F20" cx="121.317" cy="137.563" r="5.569"/>
			<circle fill="#FFFFFF" cx="116.623" cy="133.346" r="2.386"/>
		</g>
		<g>
			<path fill="#A5A3A3" d="M180.446,130.831c0,1.827-1.481,3.309-3.31,3.309h-2.316c-1.828,0-3.309-1.481-3.309-3.309v-10.92     c0-1.827,1.481-3.309,3.309-3.309h2.316c1.828,0,3.31,1.481,3.31,3.309V130.831z"/>
			<path fill="#A5A3A3" d="M180.777,145.951c0,2.066-1.482,3.741-3.31,3.741h-2.647c-1.828,0-3.309-1.675-3.309-3.741v-9.725     c0-2.065,1.481-3.74,3.309-3.74h2.647c1.828,0,3.31,1.675,3.31,3.74V145.951z"/>
		</g>
		<g>
			<path fill="#A5A3A3" d="M121.897,188.568c0-0.951-0.866-1.72-1.934-1.72l0,0c-1.069,0-1.934,0.769-1.934,1.72v0.764     c0,0.949,0.865,1.72,1.934,1.72l0,0c1.068,0,1.934-0.77,1.934-1.72V188.568z"/>
			<g>
				<path fill="#A5A3A3" d="M156.853,176.916c0-0.949-0.865-1.72-1.934-1.72l0,0c-1.068,0-1.935,0.77-1.935,1.72v0.764      c0,0.95,0.867,1.72,1.935,1.72l0,0c1.069,0,1.934-0.77,1.934-1.72V176.916z"/>
				<path fill="#A5A3A3" d="M91.029,178.521c0-1.054-0.855-1.909-1.909-1.909h-0.765c-1.054,0-1.91,0.855-1.91,1.909l0,0      c0,1.056,0.856,1.911,1.91,1.911h0.765C90.174,180.433,91.029,179.577,91.029,178.521L91.029,178.521z"/>
				<path fill="#A5A3A3" d="M157.539,90.633c0,0.95-0.866,1.721-1.934,1.721l0,0c-1.068,0-1.936-0.771-1.936-1.721v-0.764      c0-0.95,0.868-1.72,1.936-1.72l0,0c1.068,0,1.934,0.77,1.934,1.72V90.633z"/>
				<path fill="#A5A3A3" d="M91.715,89.027c0,1.055-0.856,1.908-1.91,1.908H89.04c-1.055,0-1.91-0.854-1.91-1.908l0,0      c0-1.056,0.855-1.911,1.91-1.911h0.765C90.859,87.116,91.715,87.972,91.715,89.027L91.715,89.027z"/>
				<path fill="#A5A3A3" d="M122.583,78.98c0,0.951-0.865,1.721-1.934,1.721l0,0c-1.068,0-1.933-0.77-1.933-1.721v-0.764      c0-0.949,0.865-1.72,1.933-1.72l0,0c1.069,0,1.934,0.771,1.934,1.72V78.98z"/>
				<linearGradient id="SVGID_24_" gradientUnits="userSpaceOnUse" x1="66.3303" y1="133.9457" x2="175.9958" y2="133.9457">
					<stop offset="0" style="stop-color:#E4E5E0"/>
					<stop offset="1" style="stop-color:#A59FA1"/>
				</linearGradient>
				<path fill="url(#SVGID_24_)" d="M121.163,79.113c-30.283,0-54.833,24.55-54.833,54.832c0,30.283,24.55,54.833,54.833,54.833      c30.283,0,54.833-24.55,54.833-54.833C175.996,103.663,151.446,79.113,121.163,79.113z M121.163,174.728      c-22.523,0-40.782-18.26-40.782-40.782c0-22.524,18.259-40.782,40.782-40.782c22.523,0,40.782,18.258,40.782,40.782      C161.945,156.469,143.686,174.728,121.163,174.728z"/>
				<linearGradient id="SVGID_25_" gradientUnits="userSpaceOnUse" x1="66.3303" y1="133.9457" x2="175.9958" y2="133.9457">
					<stop offset="0" style="stop-color:#E4E5E0"/>
					<stop offset="1" style="stop-color:#A59FA1"/>
				</linearGradient>
				<path fill="url(#SVGID_25_)" d="M121.163,79.113c-30.283,0-54.833,24.55-54.833,54.832c0,30.283,24.55,54.833,54.833,54.833      c30.283,0,54.833-24.55,54.833-54.833C175.996,103.663,151.446,79.113,121.163,79.113z M121.163,174.728      c-22.523,0-40.782-18.26-40.782-40.782c0-22.524,18.259-40.782,40.782-40.782c22.523,0,40.782,18.258,40.782,40.782      C161.945,156.469,143.686,174.728,121.163,174.728z"/>
				<g opacity="0.14">
					<path fill="#231F20" d="M121.163,184.666c-27.968,0-50.721-22.753-50.721-50.721c0-27.967,22.753-50.72,50.721-50.72       c27.967,0,50.72,22.753,50.72,50.72C171.883,161.913,149.131,184.666,121.163,184.666z M121.163,89.053       c-24.755,0-44.894,20.139-44.894,44.894c0,24.754,20.139,44.893,44.894,44.893s44.894-20.14,44.894-44.893       C166.057,109.191,145.918,89.053,121.163,89.053z"/>
				</g>
				<path fill="#FFFFFF" d="M78.408,108.735c0,0,9.826-18.635,34.133-22.208C112.541,86.527,86.424,85.505,78.408,108.735z"/>
				<path fill="#58595B" d="M121.357,175.066c-22.677,0-41.124-18.446-41.124-41.125c0-22.675,18.448-41.123,41.124-41.123      c22.676,0,41.125,18.448,41.125,41.123C162.481,156.62,144.032,175.066,121.357,175.066z M121.357,93.961      c-22.046,0-39.982,17.938-39.982,39.981c0,22.047,17.936,39.982,39.982,39.982c22.046,0,39.982-17.936,39.982-39.982      C161.339,111.898,143.403,93.961,121.357,93.961z"/>
			</g>
		</g>
		
			<ellipse transform="matrix(0.8709 -0.4915 0.4915 0.8709 -40.046 62.11)" fill="#FFFFFF" cx="98.188" cy="107.273" rx="4.205" ry="1.002"/>
	</g>
	<path fill="#404041" d="M127.611,334.286l-10.065,8.81l-10.991-10.304l11.552-10.824l9.523,9.73l-5.792,0.083   c0,0-0.924-2.97-4.239-3.07c0,0-3.938-0.184-4.108,4.168c0,0-0.164,4.56,4.478,4.1c0,0,2.702,0.326,3.956-2.509l-3.932,0.023   l-0.046-1.448l12.593,0.005c0.01-0.273,0.015-0.547,0.006-0.823c-0.217-6.738-6.132-12.015-13.212-11.785   c-7.08,0.228-12.642,5.874-12.425,12.61c0.217,6.737,6.132,12.014,13.212,11.785c6.376-0.205,11.52-4.807,12.321-10.642   L127.611,334.286z"/>
</g>
</svg>