<?xml version="1.0" encoding="UTF-8"?>
<svg style="float: center; margin: 0 auto;" width="5%" height="5%" viewBox="0 0 341 329" xmlns:rdf="http://www.w3.org/1999/02/22-rdf-syntax-ns#" xmlns:svg="http://www.w3.org/2000/svg" xmlns="http://www.w3.org/2000/svg">
	<path style="fill:#32363b" d="m 163.04,329 -3.89,0 c -12.41,-1.17 -23.12,-9.01 -30.4,-18.78 -12.67,-16.89 -18.79,-38.67 -16.47,-59.68 1.74,-11.81 3.65,-23.6 5.41,-35.41 -26.22,-0.09 -52.43,0.01 -78.64,-0.05 C 23.68,214.74 9.03,203.92 4.76,189.06 1.52,178.25 3.98,166.1 10.89,157.23 4.5,150.85 0.8,142.21 0,133.25 l 0,-3.59 C 0.87,118.05 7.18,107.02 17.15,100.89 13.27,90.69 13.57,78.72 19.13,69.19 22.87,62.34 29.09,57.17 36.09,53.89 32.69,40 38.47,24.35 50.31,16.25 56.32,12.03 63.66,9.61 71.04,9.8 112.02,9.83 153,9.79 193.98,9.82 c 12.65,0.42 25.19,5.02 34.98,13.09 0.18,-5.07 -0.87,-10.57 1.88,-15.16 2.25,-4.46 7,-6.98 11.78,-7.75 l 84.6,0 c 7.14,0.76 13,6.63 13.78,13.75 l 0,157.71 c -0.77,7.07 -6.66,13.47 -13.98,13.6 -27.66,0.09 -55.33,0 -83,0.05 -4.02,0.17 -8,-1.53 -10.81,-4.37 -2.38,-2.27 -3.27,-5.52 -4.66,-8.4 -0.97,1.43 -1.95,2.86 -2.79,4.37 -13.87,25.8 -27.81,51.56 -41.69,77.35 -3,5.16 -2.34,11.29 -1.98,16.98 1.31,15.86 2.4,31.73 3.67,47.59 -6.26,5.78 -14.21,9.54 -22.72,10.37 m 7.99,-17.15 c -1.22,-14.98 -2.43,-29.95 -3.4,-44.94 -0.56,-6.69 0.67,-13.53 3.84,-19.47 14.01,-25.96 28,-51.92 42,-77.89 2.9,-7.14 10.3,-10.57 15.43,-15.89 -0.04,-38.11 0.01,-76.22 -0.03,-114.34 -6.74,-2.49 -11.41,-8.34 -17.98,-11.12 -6.23,-2.76 -13.05,-4.44 -19.89,-4.21 -39.64,0.03 -79.29,0.04 -118.93,0 -12.99,-1.18 -24.76,11.66 -22.45,24.48 0.79,5.67 4.24,10.4 6.63,15.46 -5.61,1.42 -11.75,1.24 -16.82,4.34 -7.22,4 -11.53,12.48 -10.56,20.67 0.28,7.61 6.07,13.14 10.26,18.92 -5.99,2.21 -12.8,3.07 -17.63,7.61 -7.76,6.72 -9.5,19.16 -3.71,27.67 3.8,6.29 11.01,8.84 16.98,12.5 -3.28,2.45 -6.6,4.86 -9.77,7.46 -5.93,4.98 -8.74,13.4 -6.87,20.94 1.89,7.69 8.38,13.84 15.93,15.97 3.51,1.19 7.26,0.91 10.91,0.93 29.75,0 59.51,-0.01 89.26,0.01 -2.52,17.32 -5.38,34.6 -7.9,51.92 -1.52,14.44 2.1,29.14 9.02,41.81 4.33,7.63 10.17,15.04 18.48,18.52 5.53,2.39 12.07,1.72 17.2,-1.35 M 326.52,170.63 C 326.44,118.6 326.56,66.57 326.46,14.54 298.78,14.46 271.1,14.5 243.42,14.53 c -0.08,52.06 -0.05,104.12 -0.02,156.18 27.71,0.01 55.42,0.17 83.12,-0.08 z" id="path3510" />
	<path style="fill:#758fb5" d="m 326.52,170.63 c -27.7,0.25 -55.41,0.09 -83.12,0.08 -0.03,-52.06 -0.06,-104.12 0.02,-156.18 27.68,-0.03 55.36,-0.07 83.04,0.01 0.1,52.03 -0.02,104.06 0.06,156.09 z" id="path3512" />
</svg>